<svg width="46" height="45" viewBox="0 0 46 45" fill="none" xmlns="http://www.w3.org/2000/svg">
<path d="M20.3993 1.49457C20.3993 1.49457 13.567 1.3123 9.41332 2.27002C7.01076 2.54444 2.05692 6.81308 1.71092 11.7492V29.0958C1.36013 42.7424 10.5928 43.9506 10.5928 43.9506C21.5184 43.9506 24.6161 43.9506 33.0498 43.9506C35.6587 43.9506 43.1573 40.0525 43.5919 33.3126V24.2081" stroke="#5CAD46" stroke-width="2" stroke-linecap="round" stroke-linejoin="round"/>
<path d="M13.1792 32.4828C11.6818 31.1682 13.1792 21.8011 13.1792 21.8011L34.4421 1.24412C34.4421 1.24412 38.3125 0.452964 41.6768 3.97907C45.4194 7.90179 43.9707 11.9196 43.9707 11.9196L23.3254 32.212C23.3254 32.212 16.8554 33.5005 13.1792 32.4828Z" stroke="#5CAD46" stroke-width="2" stroke-linecap="round" stroke-linejoin="round"/>
<path d="M28.814 6.74231C28.814 6.74231 30.6374 13.5696 38.8218 16.5805" stroke="#5CAD46" stroke-width="2" stroke-linecap="round" stroke-linejoin="round"/>
</svg>
