<svg width="45" height="45" viewBox="0 0 45 45" fill="none" xmlns="http://www.w3.org/2000/svg">
<circle cx="22.1663" cy="15.7109" r="14.2523" stroke="#5CAD46" stroke-width="2"/>
<path d="M25.0117 12.5032C25.0117 12.5032 23.5065 7.98743 22.2894 7.98743C21.0722 7.98743 19.503 12.5032 19.503 12.5032C19.503 12.5032 15.4358 13.2935 15.2433 14.2647C15.0507 15.2359 18.1898 17.5635 18.1898 17.5635C18.1898 17.5635 17.165 22.0007 17.6774 22.4436C18.1898 22.8864 22.2894 20.5421 22.2894 20.5421C22.2894 20.5421 25.8516 23.0008 26.6451 22.4436C27.4386 21.8863 26.6451 17.5635 26.6451 17.5635C26.6451 17.5635 29.6655 15.021 29.3354 13.9446C28.8935 12.5032 25.0117 12.5032 25.0117 12.5032Z" stroke="#5CAD46" stroke-width="2" stroke-linecap="round" stroke-linejoin="round"/>
<path d="M9.26906 24.5503L1.30668 32.7911C1.30668 32.7911 0.616653 33.5166 1.30668 34.6616L6.79538 36.544L9.37893 43.0169C10.6137 43.6218 11.4778 43.0169 11.4778 43.0169L22.0874 31.0719L33.2838 42.9499C34.3466 43.7565 35.2327 42.9499 35.2327 42.9499C35.7754 42.8038 37.086 36.7722 37.086 36.7722C37.086 36.7722 41.6291 35.8213 43.3078 34.9189C44.4531 33.9238 43.3078 32.6701 43.3078 32.6701L34.8307 24.5503" stroke="#5CAD46" stroke-width="2" stroke-linecap="round" stroke-linejoin="round"/>
</svg>
