<svg width="43" height="43" viewBox="0 0 43 43" fill="none" xmlns="http://www.w3.org/2000/svg">
<rect x="1.24658" y="1.51147" width="39.9492" height="40.0775" rx="10" stroke="#5CAD46" stroke-width="2"/>
<line x1="21.2092" y1="9.32153" x2="21.2092" y2="33.9054" stroke="#5CAD46" stroke-width="2" stroke-linecap="round"/>
<path d="M27.7644 17.3913V15.4354C27.7644 15.4354 27.5827 13.1174 24.6972 12.3237C22.2216 12.3237 20.2198 12.3237 17.6292 12.3237C14.6286 12.3237 14.2953 15.4354 14.2953 15.4354C14.2953 15.4354 14.0764 16.3157 14.2953 17.3913C16.7403 22.5477 25.0327 20.6339 27.5664 24.9457C27.5664 24.9457 28.1344 26.7058 27.5664 28.2376C25.9523 32.2427 15.5089 31.7532 14.4732 28.2376C14.4487 28.1019 14.4732 25.8817 14.4732 25.8817" stroke="#5CAD46" stroke-width="2" stroke-linecap="round" stroke-linejoin="round"/>
</svg>
