<svg width="42" height="40" viewBox="0 0 42 40" fill="none" xmlns="http://www.w3.org/2000/svg">
<circle cx="20.7256" cy="19.7184" r="6" stroke="#5CAD46" stroke-width="2"/>
<path d="M15.42 1.3098C14.9851 0.980502 14.8285 1.02524 14.8022 1.03372C11.9625 1.94676 9.71932 3.66566 7.51404 5.79409C7.50486 5.81704 7.45545 5.95429 7.51782 6.362C7.59523 6.86809 7.79806 7.49501 8.04926 8.23244C8.06963 8.29222 8.09032 8.35276 8.11124 8.41395C8.33349 9.06412 8.58073 9.78737 8.7201 10.4439C8.86103 11.1077 8.96907 12.0186 8.51865 12.76C8.06249 13.511 7.25466 13.9503 6.54204 14.246C5.9108 14.5079 5.1829 14.7219 4.51813 14.9174C4.40837 14.9496 4.30034 14.9814 4.19475 15.0128C3.40698 15.247 2.74371 15.4631 2.25141 15.7275C1.75321 15.9951 1.62983 16.2057 1.60013 16.3323C1.60031 16.3316 1.60041 16.3312 1.60042 16.3312C1.60054 16.3312 1.59615 16.3545 1.59022 16.4119C1.58381 16.4739 1.57755 16.5561 1.5719 16.6595C1.5606 16.8662 1.55308 17.1321 1.54893 17.444C1.54064 18.0666 1.54614 18.8407 1.55742 19.6278C1.56869 20.4148 1.58609 21.2267 1.60046 21.8969C1.61432 22.5432 1.62535 23.0577 1.62533 23.2911L15.42 1.3098ZM15.42 1.3098C15.8427 1.62989 16.3016 2.13242 16.8461 2.75015M15.42 1.3098L16.8461 2.75015M16.8461 2.75015C16.8875 2.7971 16.9294 2.84472 16.9718 2.89288M16.8461 2.75015L16.9718 2.89288M16.9718 2.89288C17.4537 3.44068 17.9962 4.0574 18.5535 4.54114M16.9718 2.89288L18.5535 4.54114M18.5535 4.54114C19.141 5.05114 19.9264 5.57937 20.8571 5.57937M18.5535 4.54114L20.8571 5.57937M20.8571 5.57937C21.755 5.57937 22.5044 5.0314 23.0409 4.54128M20.8571 5.57937L23.0409 4.54128M23.0409 4.54128C23.5652 4.0622 24.0807 3.4504 24.5395 2.90585M23.0409 4.54128L24.5395 2.90585M24.5395 2.90585C24.5754 2.8632 24.611 2.82096 24.6462 2.77924M24.5395 2.90585L24.6462 2.77924M24.6462 2.77924C25.1613 2.16894 25.5986 1.6656 25.9994 1.33755M24.6462 2.77924L25.9994 1.33755M25.9994 1.33755C26.3435 1.05596 26.4892 1.04445 26.511 1.04467M25.9994 1.33755L26.511 1.04467M26.511 1.04467C26.5129 1.04469 26.5139 1.04481 26.5139 1.04483C26.5139 1.04487 26.5107 1.04459 26.5047 1.04288C26.5068 1.04348 26.5089 1.04407 26.511 1.04467ZM26.511 1.04467C28.9561 1.74774 31.0303 3.01317 33.0202 4.2271C33.2516 4.36825 33.4818 4.50869 33.7113 4.64748C33.9634 4.79986 34.0816 4.99768 34.0953 5.41736C34.1113 5.90818 33.9689 6.54327 33.7383 7.3613C33.6966 7.50905 33.652 7.66299 33.606 7.82148C33.4161 8.47667 33.2036 9.20966 33.085 9.90418C32.9373 10.7687 32.8954 11.7658 33.3257 12.6704C33.7511 13.5646 34.6849 13.9595 35.4077 14.1797C36.0069 14.3622 36.7123 14.4921 37.3536 14.6102C37.5269 14.6421 37.6956 14.6732 37.8562 14.7042C38.6781 14.8628 39.3175 15.0235 39.7453 15.2551C40.1156 15.4557 40.1794 15.6159 40.1794 15.821C40.1794 16.2231 40.201 16.9351 40.2264 17.7702C40.2476 18.4707 40.2715 19.2579 40.2875 20.0215C40.3054 20.8764 40.314 21.7179 40.3009 22.4263C40.2873 23.1626 40.2506 23.6722 40.2006 23.9118C40.193 23.948 40.1436 24.1134 39.6418 24.3387C39.156 24.5568 38.4938 24.7191 37.699 24.8948C37.6131 24.9138 37.5257 24.933 37.4369 24.9524C36.7526 25.1023 35.994 25.2684 35.3428 25.4962C34.642 25.7414 33.7938 26.1442 33.3545 26.9351C32.948 27.6672 32.9395 28.4853 33.0322 29.1877C33.1256 29.8949 33.3449 30.6382 33.5397 31.2915L33.5599 31.3593C33.7568 32.0194 33.9278 32.5924 34.0105 33.1071C34.0849 33.5701 34.0645 33.8612 34.0048 34.0428C32.1775 36.2367 29.7147 37.7722 26.8713 38.6796C26.8419 38.689 26.6852 38.7311 26.2556 38.4105C25.8368 38.0979 25.382 37.6066 24.8411 37.001C24.7996 36.9545 24.7575 36.9072 24.7149 36.8594C24.2368 36.323 23.6979 35.7184 23.1445 35.2441C22.5596 34.7427 21.7797 34.2253 20.8573 34.2253C19.9436 34.2253 19.1921 34.7491 18.6427 35.2473C18.1057 35.7343 17.593 36.3571 17.145 36.9014C17.1202 36.9314 17.0957 36.9613 17.0713 36.9908C16.575 37.5932 16.1636 38.0804 15.7823 38.3964C15.5976 38.5495 15.4647 38.6234 15.3791 38.6544C15.34 38.6686 15.3181 38.6712 15.3102 38.6717C15.3039 38.672 15.3013 38.6716 15.2972 38.6704C11.793 37.6734 9.10517 36.1479 7.76923 33.5311C7.72212 33.4388 7.67469 33.2052 7.7654 32.7009C7.85254 32.2165 8.02991 31.6642 8.23651 31.0226L8.23961 31.0129C8.43427 30.4084 8.6565 29.7182 8.76713 29.0701C8.87544 28.4356 8.91343 27.6535 8.55055 26.958C8.07124 26.0395 7.18027 25.577 6.38551 25.2999M26.511 1.04467L6.38551 25.2999M6.38551 25.2999C5.75299 25.0795 5.02402 24.9273 4.3768 24.7922M6.38551 25.2999L4.3768 24.7922M4.3768 24.7922C4.21387 24.7582 4.05612 24.7253 3.9064 24.6926M4.3768 24.7922L3.9064 24.6926M3.9064 24.6926C3.09156 24.5148 2.48654 24.341 2.08652 24.0905M3.9064 24.6926L2.08652 24.0905M2.08652 24.0905C1.90317 23.9758 1.79784 23.865 1.73539 23.7611M2.08652 24.0905L1.73539 23.7611M1.73539 23.7611C1.67643 23.6631 1.62534 23.5216 1.62533 23.2912L1.73539 23.7611Z" stroke="#5CAD46" stroke-width="2"/>
</svg>
