<svg width="40" height="45" viewBox="0 0 40 45" fill="none" xmlns="http://www.w3.org/2000/svg">
<path d="M6.03882 16.5511C6.03882 16.5511 6.6609 37.3169 7.55469 40.7167C7.95383 42.235 8.90005 43.304 10.4063 43.4687C14.3072 43.4687 25.2494 43.4687 29.4975 43.4687C31.9024 42.7261 32.7889 40.6802 32.7889 40.6802C33.1718 39.1438 34.2818 16.9145 34.2818 16.9145" stroke="#5CAD46" stroke-width="2" stroke-linecap="round" stroke-linejoin="round"/>
<line x1="16.6372" y1="32.3856" x2="23.6831" y2="32.3855" stroke="#5CAD46" stroke-width="2" stroke-linecap="round"/>
<line x1="15.012" y1="23.9988" x2="25.5271" y2="23.9988" stroke="#5CAD46" stroke-width="2" stroke-linecap="round"/>
<path d="M1.1958 10.3123C1.1958 10.3123 22.3047 8.1494 38.7146 10.3122" stroke="#5CAD46" stroke-width="2" stroke-linecap="round"/>
<path d="M12.927 8.94484C12.927 8.94484 12.7465 4.20972 14.6965 2.1825C17.0598 1.45419 23.8862 1.49111 25.6574 2.1825C27.7135 4.16468 27.3917 9.42454 27.3917 9.42454" stroke="#5CAD46" stroke-width="2" stroke-linecap="round" stroke-linejoin="round"/>
</svg>
