<svg width="45" height="46" viewBox="0 0 45 46" fill="none" xmlns="http://www.w3.org/2000/svg">
<path d="M19.7946 1.93524C19.7946 1.93524 12.9622 1.75297 8.80858 2.71069C6.40602 2.98511 1.45218 7.25376 1.10618 12.1899V29.5365C0.755389 43.1831 9.9881 44.3913 9.9881 44.3913C20.9136 44.3913 24.0113 44.3913 32.445 44.3913C35.054 44.3913 42.5525 40.4932 42.9872 33.7533V24.6488" stroke="black" stroke-width="2" stroke-linecap="round" stroke-linejoin="round"/>
<path d="M12.5743 32.9234C11.077 31.6088 12.5743 22.2418 12.5743 22.2418L33.8372 1.68479C33.8372 1.68479 37.7077 0.893638 41.0719 4.41974C44.8145 8.34247 43.3658 12.3603 43.3658 12.3603L22.7205 32.6527C22.7205 32.6527 16.2505 33.9412 12.5743 32.9234Z" stroke="black" stroke-width="2" stroke-linecap="round" stroke-linejoin="round"/>
<path d="M28.2091 7.18298C28.2091 7.18298 30.0325 14.0103 38.2169 17.0212" stroke="black" stroke-width="2" stroke-linecap="round" stroke-linejoin="round"/>
</svg>
