<svg width="46" height="47" viewBox="0 0 46 47" fill="none" xmlns="http://www.w3.org/2000/svg">
<path d="M30.5813 24.4189C31.2717 24.4189 31.8313 23.8592 31.8313 23.1689C31.8313 22.4785 31.2717 21.9189 30.5813 21.9189L30.5813 24.4189ZM1.10757 22.285C0.619416 22.7732 0.619416 23.5646 1.10757 24.0528L9.06252 32.0077C9.55068 32.4959 10.3421 32.4959 10.8303 32.0077C11.3184 31.5196 11.3184 30.7281 10.8303 30.24L3.75922 23.1689L10.8303 16.0978C11.3184 15.6097 11.3184 14.8182 10.8303 14.33C10.3421 13.8419 9.55068 13.8419 9.06252 14.33L1.10757 22.285ZM30.5813 21.9189L1.99146 21.9189L1.99145 24.4189L30.5813 24.4189L30.5813 21.9189Z" fill="black"/>
<path d="M16.4771 13.5641C16.4771 4.07886 23.114 1.59434 30.5153 1.34707C37.1034 1.12697 43.1876 4.07886 44.6294 10.6046V23.277" stroke="black" stroke-width="2" stroke-linecap="round"/>
<path d="M16.4771 32.8818C16.4771 42.3671 23.114 44.8516 30.5153 45.0989C37.1034 45.319 43.1876 42.3671 44.6294 35.8413V23.1689" stroke="black" stroke-width="2" stroke-linecap="round"/>
</svg>
