<svg width="46" height="45" viewBox="0 0 46 45" fill="none" xmlns="http://www.w3.org/2000/svg">
<circle cx="22.5616" cy="16.1516" r="14.2523" stroke="black" stroke-width="2"/>
<path d="M25.4069 12.9439C25.4069 12.9439 23.9017 8.4281 22.6846 8.4281C21.4675 8.4281 19.8982 12.9439 19.8982 12.9439C19.8982 12.9439 15.8311 13.7342 15.6385 14.7054C15.446 15.6765 18.585 18.0042 18.585 18.0042C18.585 18.0042 17.5602 22.4414 18.0726 22.8842C18.585 23.3271 22.6846 20.9828 22.6846 20.9828C22.6846 20.9828 26.2469 23.4415 27.0404 22.8842C27.8338 22.327 27.0404 18.0042 27.0404 18.0042C27.0404 18.0042 30.0607 15.4616 29.7307 14.3853C29.2888 12.9439 25.4069 12.9439 25.4069 12.9439Z" stroke="black" stroke-width="2" stroke-linecap="round" stroke-linejoin="round"/>
<path d="M9.6642 24.991L1.70182 33.2318C1.70182 33.2318 1.01179 33.9573 1.70182 35.1023L7.19052 36.9847L9.77407 43.4576C11.0089 44.0624 11.873 43.4576 11.873 43.4576L22.4825 31.5126L33.6789 43.3905C34.7418 44.1972 35.6279 43.3905 35.6279 43.3905C36.1705 43.2445 37.4812 37.2129 37.4812 37.2129C37.4812 37.2129 42.0242 36.2619 43.7029 35.3596C44.8483 34.3645 43.7029 33.1108 43.7029 33.1108L35.2258 24.991" stroke="black" stroke-width="2" stroke-linecap="round" stroke-linejoin="round"/>
</svg>
