<svg width="43" height="44" viewBox="0 0 43 44" fill="none" xmlns="http://www.w3.org/2000/svg">
<rect x="1.64172" y="1.95215" width="39.9492" height="40.0775" rx="10" stroke="black" stroke-width="2"/>
<line x1="21.6044" y1="9.76221" x2="21.6044" y2="34.3461" stroke="black" stroke-width="2" stroke-linecap="round"/>
<path d="M28.1595 17.832V15.876C28.1595 15.876 27.9778 13.5581 25.0923 12.7644C22.6167 12.7644 20.6149 12.7644 18.0244 12.7644C15.0237 12.7644 14.6904 15.876 14.6904 15.876C14.6904 15.876 14.4715 16.7564 14.6904 17.832C17.1355 22.9884 25.4278 21.0745 27.9616 25.3864C27.9616 25.3864 28.5295 27.1465 27.9616 28.6783C26.3475 32.6834 15.9041 32.1939 14.8683 28.6783C14.8439 28.5426 14.8683 26.3223 14.8683 26.3223" stroke="black" stroke-width="2" stroke-linecap="round" stroke-linejoin="round"/>
</svg>
