<svg width="42" height="40" viewBox="0 0 42 40" fill="none" xmlns="http://www.w3.org/2000/svg">
<circle cx="20.7256" cy="19.6926" r="6" stroke="black" stroke-width="2"/>
<path d="M15.42 1.28398C14.9851 0.954684 14.8285 0.99942 14.8022 1.0079C11.9625 1.92094 9.71932 3.63985 7.51404 5.76827C7.50486 5.79122 7.45545 5.92847 7.51782 6.33618C7.59523 6.84227 7.79806 7.46919 8.04926 8.20662C8.06963 8.2664 8.09032 8.32694 8.11124 8.38813C8.33349 9.0383 8.58073 9.76155 8.7201 10.4181C8.86103 11.0819 8.96907 11.9928 8.51865 12.7342C8.06249 13.4851 7.25466 13.9245 6.54204 14.2202C5.9108 14.4821 5.1829 14.6961 4.51813 14.8916C4.40837 14.9238 4.30034 14.9556 4.19475 14.987C3.40698 15.2212 2.74371 15.4373 2.25141 15.7017C1.75321 15.9693 1.62983 16.1799 1.60013 16.3065C1.60031 16.3057 1.60041 16.3053 1.60042 16.3053C1.60054 16.3054 1.59615 16.3287 1.59022 16.3861C1.58381 16.4481 1.57755 16.5303 1.5719 16.6337C1.5606 16.8404 1.55308 17.1063 1.54893 17.4182C1.54064 18.0408 1.54614 18.8149 1.55742 19.6019C1.56869 20.3889 1.58609 21.2009 1.60046 21.8711C1.61432 22.5174 1.62535 23.0319 1.62533 23.2653L15.42 1.28398ZM15.42 1.28398C15.8427 1.60408 16.3016 2.1066 16.8461 2.72433M15.42 1.28398L16.8461 2.72433M16.8461 2.72433C16.8875 2.77128 16.9294 2.8189 16.9718 2.86706M16.8461 2.72433L16.9718 2.86706M16.9718 2.86706C17.4537 3.41486 17.9962 4.03159 18.5535 4.51532M16.9718 2.86706L18.5535 4.51532M18.5535 4.51532C19.141 5.02532 19.9264 5.55356 20.8571 5.55356M18.5535 4.51532L20.8571 5.55356M20.8571 5.55356C21.755 5.55356 22.5044 5.00558 23.0409 4.51546M20.8571 5.55356L23.0409 4.51546M23.0409 4.51546C23.5652 4.03639 24.0807 3.42458 24.5395 2.88003M23.0409 4.51546L24.5395 2.88003M24.5395 2.88003C24.5754 2.83738 24.611 2.79515 24.6462 2.75342M24.5395 2.88003L24.6462 2.75342M24.6462 2.75342C25.1613 2.14312 25.5986 1.63978 25.9994 1.31173M24.6462 2.75342L25.9994 1.31173M25.9994 1.31173C26.3435 1.03014 26.4892 1.01863 26.511 1.01885M25.9994 1.31173L26.511 1.01885M26.511 1.01885C26.5129 1.01887 26.5139 1.01899 26.5139 1.01901C26.5139 1.01905 26.5107 1.01878 26.5047 1.01706C26.5068 1.01766 26.5089 1.01825 26.511 1.01885ZM26.511 1.01885C28.9561 1.72192 31.0303 2.98735 33.0202 4.20129C33.2516 4.34243 33.4818 4.48287 33.7113 4.62166C33.9634 4.77404 34.0816 4.97186 34.0953 5.39154C34.1113 5.88236 33.9689 6.51745 33.7383 7.33548C33.6966 7.48323 33.652 7.63717 33.606 7.79566C33.4161 8.45086 33.2036 9.18384 33.085 9.87836C32.9373 10.7429 32.8954 11.7399 33.3257 12.6446C33.7511 13.5388 34.6849 13.9337 35.4077 14.1539C36.0069 14.3364 36.7123 14.4663 37.3536 14.5844C37.5269 14.6163 37.6956 14.6474 37.8562 14.6784C38.6781 14.837 39.3175 14.9976 39.7453 15.2293C40.1156 15.4299 40.1794 15.5901 40.1794 15.7952C40.1794 16.1972 40.201 16.9092 40.2264 17.7444C40.2476 18.4449 40.2715 19.2321 40.2875 19.9957C40.3054 20.8506 40.314 21.6921 40.3009 22.4005C40.2873 23.1368 40.2506 23.6464 40.2006 23.8859C40.193 23.9222 40.1436 24.0876 39.6418 24.3129C39.156 24.531 38.4938 24.6933 37.699 24.869C37.6131 24.888 37.5257 24.9072 37.4369 24.9266C36.7526 25.0764 35.994 25.2426 35.3428 25.4704C34.642 25.7156 33.7938 26.1183 33.3545 26.9093C32.948 27.6414 32.9395 28.4595 33.0322 29.1619C33.1256 29.8691 33.3449 30.6124 33.5397 31.2657L33.5599 31.3335C33.7568 31.9936 33.9278 32.5666 34.0105 33.0813C34.0849 33.5442 34.0645 33.8354 34.0048 34.017C32.1775 36.2108 29.7147 37.7464 26.8713 38.6538C26.8419 38.6632 26.6852 38.7053 26.2556 38.3847C25.8368 38.0721 25.382 37.5807 24.8411 36.9752C24.7996 36.9286 24.7575 36.8814 24.7149 36.8336C24.2368 36.2972 23.6979 35.6926 23.1445 35.2182C22.5596 34.7168 21.7797 34.1995 20.8573 34.1995C19.9436 34.1995 19.1921 34.7233 18.6427 35.2215C18.1057 35.7085 17.593 36.3313 17.145 36.8755C17.1202 36.9056 17.0957 36.9355 17.0713 36.965C16.575 37.5674 16.1636 38.0546 15.7823 38.3706C15.5976 38.5237 15.4647 38.5976 15.3791 38.6286C15.34 38.6428 15.3181 38.6454 15.3102 38.6458C15.3039 38.6462 15.3013 38.6458 15.2972 38.6446C11.793 37.6476 9.10517 36.122 7.76923 33.5053C7.72212 33.413 7.67469 33.1794 7.7654 32.6751C7.85254 32.1907 8.02991 31.6384 8.23651 30.9968L8.23961 30.9871C8.43427 30.3826 8.6565 29.6924 8.76713 29.0443C8.87544 28.4098 8.91343 27.6276 8.55055 26.9322C8.07124 26.0136 7.18027 25.5512 6.38551 25.2741M26.511 1.01885L6.38551 25.2741M6.38551 25.2741C5.75299 25.0536 5.02402 24.9015 4.3768 24.7664M6.38551 25.2741L4.3768 24.7664M4.3768 24.7664C4.21387 24.7324 4.05612 24.6994 3.9064 24.6668M4.3768 24.7664L3.9064 24.6668M3.9064 24.6668C3.09156 24.489 2.48654 24.3152 2.08652 24.0647M3.9064 24.6668L2.08652 24.0647M2.08652 24.0647C1.90317 23.9499 1.79784 23.8392 1.73539 23.7353M2.08652 24.0647L1.73539 23.7353M1.73539 23.7353C1.67643 23.6373 1.62534 23.4958 1.62533 23.2653L1.73539 23.7353Z" stroke="black" stroke-width="2"/>
</svg>
