<svg width="41" height="44" viewBox="0 0 41 44" fill="none" xmlns="http://www.w3.org/2000/svg">
<path d="M6.43396 15.9918C6.43396 15.9918 7.05604 36.7576 7.94983 40.1574C8.34897 41.6757 9.29519 42.7447 10.8015 42.9093C14.7023 42.9093 25.6446 42.9093 29.8926 42.9093C32.2975 42.1668 33.1841 40.1209 33.1841 40.1209C33.5669 38.5845 34.6769 16.3552 34.6769 16.3552" stroke="black" stroke-width="2" stroke-linecap="round" stroke-linejoin="round"/>
<line x1="17.0323" y1="31.8263" x2="24.0782" y2="31.8262" stroke="black" stroke-width="2" stroke-linecap="round"/>
<line x1="15.4071" y1="23.4395" x2="25.9222" y2="23.4395" stroke="black" stroke-width="2" stroke-linecap="round"/>
<path d="M1.59094 9.75299C1.59094 9.75299 22.6998 7.59007 39.1098 9.75287" stroke="black" stroke-width="2" stroke-linecap="round"/>
<path d="M13.3222 8.38552C13.3222 8.38552 13.1416 3.65039 15.0916 1.62317C17.4549 0.894869 24.2814 0.931783 26.0526 1.62317C28.1087 3.60536 27.7868 8.86521 27.7868 8.86521" stroke="black" stroke-width="2" stroke-linecap="round" stroke-linejoin="round"/>
</svg>
