<?xml version="1.0" encoding="UTF-8" standalone="no"?>
<!-- Created with Inkscape (http://www.inkscape.org/) -->

<svg
   width="157.54073mm"
   height="153.82419mm"
   viewBox="0 0 157.54072 153.8242"
   version="1.1"
   id="svg1"
   xml:space="preserve"
   inkscape:export-filename="settings-icon.svg"
   inkscape:export-xdpi="96"
   inkscape:export-ydpi="96"
   xmlns:inkscape="http://www.inkscape.org/namespaces/inkscape"
   xmlns:sodipodi="http://sodipodi.sourceforge.net/DTD/sodipodi-0.dtd"
   xmlns="http://www.w3.org/2000/svg"
   xmlns:svg="http://www.w3.org/2000/svg"><sodipodi:namedview
     id="namedview1"
     pagecolor="#ffffff"
     bordercolor="#000000"
     borderopacity="0.25"
     inkscape:showpageshadow="2"
     inkscape:pageopacity="0.0"
     inkscape:pagecheckerboard="0"
     inkscape:deskcolor="#d1d1d1"
     inkscape:document-units="mm"
     inkscape:zoom="0.72248176"
     inkscape:cx="204.1574"
     inkscape:cy="215.23035"
     inkscape:window-width="1920"
     inkscape:window-height="1046"
     inkscape:window-x="-11"
     inkscape:window-y="-11"
     inkscape:window-maximized="1"
     inkscape:current-layer="layer1" /><defs
     id="defs1" /><g
     inkscape:label="Layer 1"
     inkscape:groupmode="layer"
     id="layer1"
     transform="translate(-201.17185,-46.713267)"><path
       style="fill:#000000"
       d="m 255.26049,199.83697 c -6.51548,-2.00596 -13.06828,-4.98929 -17.5912,-8.00884 -4.65557,-3.10811 -9.39125,-8.23261 -11.68392,-12.64323 -0.83663,-1.6095 -0.8855,-1.85164 -0.85444,-4.23333 0.0344,-2.64114 -0.0296,-2.37713 2.95411,-12.18348 1.24359,-4.08729 1.47259,-7.82342 0.59111,-9.64429 -1.45487,-3.00537 -4.55778,-4.54392 -12.83858,-6.36591 -5.86593,-1.29065 -7.84465,-1.8602 -9.67813,-2.78574 -2.1555,-1.08809 -3.50454,-2.37422 -4.22354,-4.02659 -0.59814,-1.37463 -0.60453,-1.51272 -0.72443,-15.67435 -0.086,-10.15872 -0.0344,-14.60532 0.17852,-15.38732 0.40271,-1.4789 2.28219,-3.51292 4.17841,-4.52199 2.20735,-1.17464 3.61737,-1.69331 9.93306,-3.65384 8.72003,-2.706895 11.62961,-4.175475 13.03971,-6.581623 0.54751,-0.934257 0.65786,-1.46629 0.65786,-3.171884 0,-2.380282 -0.50391,-4.509204 -2.38471,-10.075004 -2.62059,-7.755028 -3.22098,-11.400707 -2.22365,-13.502431 0.85154,-1.794495 9.58063,-9.222414 15.36522,-13.074861 6.09856,-4.061545 14.82872,-7.921568 17.1124,-7.566213 2.64631,0.411781 5.41982,2.727161 11.46478,9.571024 6.79633,7.694527 10.42712,9.422561 14.55641,6.927955 1.76732,-1.067679 5.14608,-4.470318 9.04747,-9.111404 4.48434,-5.334565 6.93296,-7.235688 9.3257,-7.240546 3.6544,-0.0074 13.88112,4.63558 25.02153,11.359943 6.45786,3.897972 7.43954,4.748953 8.04175,6.971096 0.49848,1.839394 0.14993,5.982784 -0.79478,9.447728 -3.07229,11.26838 -3.56499,14.091462 -2.95661,16.940753 0.50031,2.343169 1.22129,3.546532 2.74847,4.587353 1.86536,1.271299 4.32066,2.013899 10.9856,3.322589 8.06977,1.584525 10.53855,2.517485 12.5483,4.742025 1.52384,1.68671 1.56569,2.20158 1.61317,19.84595 l 0.0425,15.7894 -0.67273,1.31877 c -1.33226,2.6117 -4.49381,4.03152 -13.52485,6.07389 -7.63828,1.7274 -10.1505,2.67728 -12.01685,4.54362 -2.56441,2.56442 -2.55809,5.88997 0.0284,14.9376 3.17767,11.11566 3.09245,12.43003 -1.09367,16.86755 -3.05255,3.23587 -6.66275,6.29528 -10.27828,8.71021 -3.39408,2.26702 -9.69404,5.4493 -13.77117,6.95619 -3.8358,1.4177 -5.38308,1.52464 -7.40833,0.51201 -1.40753,-0.70376 -5.56126,-4.68965 -10.42908,-10.00767 -4.26625,-4.66082 -6.90739,-6.3986 -9.71768,-6.39391 -3.2173,0.005 -5.42636,1.66154 -10.93679,8.1995 -4.64271,5.50845 -6.63704,7.4591 -8.52442,8.33776 -1.74157,0.81078 -2.14899,0.80213 -5.10661,-0.10846 z m 53.60034,-9.54702 c 5.72945,-2.54835 11.38188,-6.40031 15.79335,-10.7627 l 2.45411,-2.42681 -0.17284,-1.1469 c -0.0951,-0.6308 -0.70237,-2.99238 -1.34958,-5.24795 -1.97072,-6.86807 -2.47573,-9.22382 -2.64156,-12.32232 -0.44931,-8.39517 3.40931,-13.69773 12.1248,-16.66206 0.97965,-0.3332 4.438,-1.22487 7.68523,-1.9815 3.24724,-0.75663 6.43984,-1.57438 7.09469,-1.81722 l 1.19062,-0.44153 -0.045,-12.29341 c -0.0248,-6.76138 -0.12522,-13.16737 -0.22325,-14.23552 -0.17402,-1.8962 -0.19945,-1.95096 -1.07601,-2.31721 -0.49378,-0.20632 -3.57855,-0.91005 -6.85504,-1.56386 -9.38935,-1.87359 -12.7664,-3.20301 -15.78236,-6.21291 -2.61065,-2.605405 -3.87243,-5.815328 -4.11678,-10.47292 -0.18187,-3.466641 0.27528,-6.646728 1.68562,-11.725597 1.64036,-5.90724 2.46804,-9.325355 2.46804,-10.192371 0,-0.819068 -0.17786,-0.95347 -5.47741,-4.138961 -6.28131,-3.775619 -12.75513,-7.08132 -16.68338,-8.518959 -2.31786,-0.84828 -2.79371,-0.944809 -3.26076,-0.661459 -0.30078,0.182471 -2.23467,2.295021 -4.29755,4.694555 -5.81128,6.759657 -7.82836,8.664542 -11.02674,10.413416 -5.05037,2.761544 -10.61302,2.282045 -15.7427,-1.357013 -2.36527,-1.677948 -4.32484,-3.527122 -7.32933,-6.916401 -4.18088,-4.716321 -6.6115,-7.16425 -7.1136,-7.16425 -0.65354,0 -3.95747,1.417172 -6.96199,2.986244 -4.81652,2.515356 -10.09315,6.316722 -15.11979,10.892519 -1.97703,1.799714 -2.21903,2.118367 -2.08373,2.743816 0.0842,0.389196 0.90959,3.029349 1.83421,5.867005 2.02961,6.228846 2.65748,8.584381 3.04757,11.433411 0.6871,5.018304 -0.82009,9.36791 -4.35557,12.569805 -2.88659,2.61423 -6.529,4.29951 -14.47189,6.6959 -2.9643,0.89434 -6.25284,1.98402 -7.30786,2.4215 l -1.91823,0.79543 v 8.00268 c 0,4.40148 0.0788,10.17904 0.17518,12.83903 l 0.17519,4.83633 0.86404,0.36103 c 1.16364,0.48619 4.04955,1.2322 8.04601,2.07987 4.68697,0.99414 7.26533,1.81707 10.03101,3.20157 6.56198,3.28494 9.72559,9.16194 8.75355,16.26135 -0.34769,2.5394 -1.03267,5.21223 -2.71063,10.57709 -1.81036,5.78814 -1.80574,5.58114 -0.18027,8.08067 3.75291,5.77093 10.92879,10.6671 20.39547,13.91602 l 3.34852,1.14919 0.59128,-0.52659 c 0.32521,-0.28962 2.08469,-2.31252 3.90996,-4.49533 6.99777,-8.36852 10.62141,-11.06985 15.86449,-11.82655 1.69544,-0.2447 2.40013,-0.22128 4.15807,0.13818 4.36844,0.89325 7.77234,3.20065 12.96556,8.78894 1.74572,1.87852 4.19822,4.46515 5.45,5.74807 l 2.27598,2.33259 1.56048,-0.57619 c 0.85827,-0.3169 2.82064,-1.13668 4.36083,-1.82172 z M 275.6334,150.03653 c -3.79497,-0.46964 -7.96702,-2.05749 -11.38958,-4.33479 -5.45331,-3.62851 -9.43882,-9.25847 -11.29836,-15.96015 -0.4761,-1.71585 -0.56349,-2.74887 -0.56349,-6.661 0,-3.91214 0.0874,-4.94516 0.56349,-6.661 2.2631,-8.15608 7.54759,-14.47578 15.04079,-17.987215 5.4808,-2.568391 12.43759,-3.149056 18.34805,-1.53147 2.31032,0.6323 6.2831,2.45083 8.13167,3.722245 2.05019,1.4101 5.48398,4.86284 6.961,6.99943 1.65226,2.39008 2.91243,5.0554 3.88091,8.20832 0.6706,2.18313 0.72442,2.70226 0.73798,7.11739 0.0128,4.18211 -0.06,5.03658 -0.59757,7.01146 -3.62204,13.30586 -16.18251,21.76384 -29.81489,20.07678 z m 8.02013,-8.07454 c 1.0869,-0.22696 2.99996,-0.93632 4.36562,-1.61876 2.00484,-1.00185 2.85079,-1.63569 4.82641,-3.61631 2.0235,-2.02861 2.58561,-2.79187 3.61978,-4.91508 1.64182,-3.37079 2.15321,-5.83143 1.99867,-9.61698 -0.20994,-5.14278 -1.9122,-8.99122 -5.63269,-12.73429 -2.39887,-2.41342 -4.60007,-3.79947 -7.67292,-4.83149 -1.90993,-0.64144 -2.49138,-0.71087 -5.95313,-0.71087 -3.46174,0 -4.04319,0.0694 -5.95312,0.71087 -2.9961,1.00624 -5.24323,2.40232 -7.55413,4.69317 -2.31291,2.29285 -3.98083,4.93749 -4.95962,7.86393 -0.6126,1.83162 -0.68926,2.47988 -0.69704,5.89441 -0.008,3.6337 0.0348,3.95896 0.81584,6.15453 1.02789,2.88959 2.16236,4.79252 4.16486,6.986 4.76183,5.21595 11.37977,7.25512 18.63147,5.74087 z"
       id="path1" /></g></svg>
